<svg xmlns="http://www.w3.org/2000/svg" viewBox="0 0 130.99 117.17"><defs><style>.cls-1,.cls-4{opacity:0.5;}.cls-2,.cls-4{fill:#231815;}.cls-3{fill:#fff;stroke:#231815;}.cls-3,.cls-4{stroke-miterlimit:10;}.cls-4{stroke:#fff;}</style></defs><g id="レイヤー_2" data-name="レイヤー 2"><g id="レイヤー_1-2" data-name="レイヤー 1"><g class="cls-1"><rect class="cls-2" x="11.71" y="19.83" width="106.78" height="77.5" transform="translate(-19.37 35.44) rotate(-26.66)"/><rect class="cls-3" x="6.49" y="26.63" width="124" height="90"/></g><circle class="cls-4" cx="34.49" cy="56.63" r="15"/><g class="cls-1"><path class="cls-2" d="M73.49,102.13c-5.19,0-8-3.18-11.29-6.87-4.63-5.21-9.88-11.13-23.71-11.13C15.08,84.13,7,96.63,6.91,96.76l-.84-.53c.08-.13,8.42-13.1,32.42-13.1,14.28,0,19.92,6.36,24.45,11.47,3.24,3.65,5.8,6.53,10.55,6.53,4.45,0,11.84-5.41,19.66-11.15,13.18-9.66,28.12-20.61,37.65-13.28l-.61.79c-8.94-6.88-23.56,3.84-36.45,13.3C85.44,96.88,78.27,102.13,73.49,102.13Z"/><path class="cls-2" d="M73.49,102.39c-5.19,0-8-3.24-11.29-7-4.63-5.31-9.88-11.33-23.71-11.33C15.08,84.06,7,96.79,6.91,96.92l-.84-.54C6.15,96.25,14.49,83,38.49,83c14.28,0,19.92,6.47,24.45,11.67,3.24,3.72,5.8,6.66,10.55,6.66,4.45,0,11.84-5.51,19.66-11.35,13.18-9.85,28.12-21,37.65-13.54l-.61.81c-8.94-7-23.56,3.92-36.45,13.55C85.44,97,78.27,102.39,73.49,102.39Z"/><path class="cls-2" d="M73.49,103.81c-5.19,0-8-3.57-11.29-7.7-4.63-5.85-9.88-12.47-23.71-12.47-23.41,0-31.5,14-31.58,14.15l-.84-.59c.08-.15,8.42-14.68,32.42-14.68,14.28,0,19.92,7.12,24.45,12.84,3.24,4.1,5.8,7.33,10.55,7.33,4.45,0,11.84-6.07,19.66-12.49,13.18-10.83,28.12-23.1,37.65-14.89l-.61.89c-8.94-7.71-23.56,4.3-36.45,14.9C85.44,97.92,78.27,103.81,73.49,103.81Z"/><path class="cls-2" d="M73.49,105.23c-5.19,0-8-3.9-11.29-8.41-4.63-6.37-9.88-13.59-23.71-13.59C15.08,83.23,7,98.5,6.91,98.66L6.07,98c.08-.16,8.42-16,32.42-16,14.28,0,19.92,7.76,24.45,14,3.24,4.47,5.8,8,10.55,8,4.45,0,11.84-6.62,19.66-13.62,13.18-11.82,28.12-25.2,37.65-16.24l-.61,1c-8.94-8.41-23.56,4.69-36.45,16.25C85.44,98.8,78.27,105.23,73.49,105.23Z"/></g></g></g></svg>