<svg xmlns="http://www.w3.org/2000/svg" xmlns:xlink="http://www.w3.org/1999/xlink" viewBox="0 0 108.4 57.01"><defs><style>.cls-1{fill:url(#名称未設定グラデーション_37);}.cls-2{fill:url(#名称未設定グラデーション_37-2);}.cls-3{fill:url(#名称未設定グラデーション_37-3);}.cls-4{fill:url(#名称未設定グラデーション_37-4);}.cls-5{fill:url(#名称未設定グラデーション_37-5);}.cls-6{fill:url(#名称未設定グラデーション_37-6);}.cls-7{fill:url(#名称未設定グラデーション_37-7);}.cls-8{fill:url(#名称未設定グラデーション_37-8);}.cls-9{fill:url(#名称未設定グラデーション_37-9);}</style><linearGradient id="名称未設定グラデーション_37" x1="-0.43" y1="7" x2="15.91" y2="16.43" gradientUnits="userSpaceOnUse"><stop offset="0" stop-color="#f6f9fa"/><stop offset="0.08" stop-color="#e5f0d5" stop-opacity="0.92"/><stop offset="0.37" stop-color="#a8d053" stop-opacity="0.62"/><stop offset="0.5" stop-color="#8fc31f" stop-opacity="0.5"/><stop offset="0.81" stop-color="#2fa738" stop-opacity="0.84"/><stop offset="1" stop-color="#094"/></linearGradient><linearGradient id="名称未設定グラデーション_37-2" x1="23.97" y1="13.16" x2="35.4" y2="19.76" xlink:href="#名称未設定グラデーション_37"/><linearGradient id="名称未設定グラデーション_37-3" x1="41.89" y1="8.69" x2="52.25" y2="14.67" xlink:href="#名称未設定グラデーション_37"/><linearGradient id="名称未設定グラデーション_37-4" x1="54.09" y1="8.26" x2="69.94" y2="17.41" xlink:href="#名称未設定グラデーション_37"/><linearGradient id="名称未設定グラデーション_37-5" x1="75.65" y1="13.89" x2="86.51" y2="20.15" xlink:href="#名称未設定グラデーション_37"/><linearGradient id="名称未設定グラデーション_37-6" x1="97.75" y1="12.96" x2="108.04" y2="18.9" xlink:href="#名称未設定グラデーション_37"/><linearGradient id="名称未設定グラデーション_37-7" x1="1.89" y1="35.37" x2="25.08" y2="48.76" xlink:href="#名称未設定グラデーション_37"/><linearGradient id="名称未設定グラデーション_37-8" x1="36" y1="34.96" x2="63.4" y2="50.78" xlink:href="#名称未設定グラデーション_37"/><linearGradient id="名称未設定グラデーション_37-9" x1="71.37" y1="41.23" x2="104" y2="41.23" xlink:href="#名称未設定グラデーション_37"/></defs><g id="レイヤー_2" data-name="レイヤー 2"><g id="レイヤー_1-2" data-name="レイヤー 1"><path class="cls-1" d="M7.75,22.44a11.11,11.11,0,0,1-4.08-.75,8.5,8.5,0,0,1-3.18-2.1q-.6-.51,0-1.05a.65.65,0,0,1,1,0,7.16,7.16,0,0,0,2.7,1.74,9.76,9.76,0,0,0,3.51.63,6.72,6.72,0,0,0,4-1.05A3.4,3.4,0,0,0,13.21,17a3.76,3.76,0,0,0-1.5-3.12A10.15,10.15,0,0,0,7,12.21a8.33,8.33,0,0,1-4.56-2A5.37,5.37,0,0,1,1,6.24,5.22,5.22,0,0,1,2.71,2.08,7,7,0,0,1,7.45.6a9.62,9.62,0,0,1,3.24.6,12.28,12.28,0,0,1,3.12,1.65.67.67,0,0,1,.12,1,.64.64,0,0,1-1,.15,9.83,9.83,0,0,0-2.69-1.44A8.36,8.36,0,0,0,7.45,2.1,5.52,5.52,0,0,0,3.8,3.19,3.78,3.78,0,0,0,2.5,6.24a3.94,3.94,0,0,0,1.15,3,6.65,6.65,0,0,0,3.62,1.49,11.35,11.35,0,0,1,5.64,2.08A5.15,5.15,0,0,1,14.71,17a4.81,4.81,0,0,1-1.83,4A8,8,0,0,1,7.75,22.44Z"/><path class="cls-2" d="M33.4,22.47a.73.73,0,0,1-.51-.2.64.64,0,0,1-.21-.49v-.24L29,22.26a7.57,7.57,0,0,1-2.34.15,3.43,3.43,0,0,1-1.62-.6,2.87,2.87,0,0,1-.77-1,3.67,3.67,0,0,1-.34-1.33,3.69,3.69,0,0,1,.76-2.87,4.67,4.67,0,0,1,2.93-1.45l5.07-.87v-.84a4.71,4.71,0,0,0-.2-1.28,1.59,1.59,0,0,0-.79-1,2.29,2.29,0,0,0-1.23-.3,9.32,9.32,0,0,0-4.59,1.68.74.74,0,0,1-.54.08.71.71,0,0,1-.42-.32.67.67,0,0,1-.11-.56.59.59,0,0,1,.32-.4,14.17,14.17,0,0,1,3.09-1.49,7.87,7.87,0,0,1,2.25-.4,3.92,3.92,0,0,1,1.09.13,4,4,0,0,1,.8.32,3.12,3.12,0,0,1,1.32,1.39,4.86,4.86,0,0,1,.45,2.15v8.31a.66.66,0,0,1-.2.49A.7.7,0,0,1,33.4,22.47Zm-4.65-1.65,3.93-.72V15.75l-4.8.81a3.71,3.71,0,0,0-1.79.69,1.94,1.94,0,0,0-.67,1,4,4,0,0,0-.09,1.07,1.74,1.74,0,0,0,.57,1.29Q26.62,21.18,28.75,20.82Z"/><path class="cls-3" d="M47.29,22.47a.69.69,0,0,1-.5-.2.66.66,0,0,1-.19-.49V11.31H43.15a.68.68,0,0,1-.51-.23.73.73,0,0,1-.21-.52.67.67,0,0,1,.21-.5.76.76,0,0,1,.51-.19h4.14a.81.81,0,0,1,.54.19.67.67,0,0,1,.21.5V21.78a.64.64,0,0,1-.21.49A.77.77,0,0,1,47.29,22.47Zm-.36-18a1,1,0,0,1-.69-.24A.71.71,0,0,1,46,3.66V1.8a.78.78,0,0,1,.27-.56A1,1,0,0,1,46.93,1a.94.94,0,0,1,.67.25.81.81,0,0,1,.26.56V3.66a.73.73,0,0,1-.26.54A.93.93,0,0,1,46.93,4.44Z"/><path class="cls-4" d="M59.26,22.47a.73.73,0,0,1-.51-.2.64.64,0,0,1-.21-.49V.75a.77.77,0,0,1,.21-.53.7.7,0,0,1,1,0A.77.77,0,0,1,60,.75V11.37A5.45,5.45,0,0,1,61.66,10,4.75,4.75,0,0,1,64,9.42a5,5,0,0,1,4,1.74,7.16,7.16,0,0,1,1.47,4.77A7.16,7.16,0,0,1,68,20.68a5.4,5.4,0,0,1-6.3,1.24A5.42,5.42,0,0,1,60,20.52v1.26a.64.64,0,0,1-.21.49A.73.73,0,0,1,59.26,22.47ZM64,21a3.58,3.58,0,0,0,3-1.32,5.89,5.89,0,0,0,1-3.75,5.84,5.84,0,0,0-1-3.72,3.58,3.58,0,0,0-3-1.32,3.49,3.49,0,0,0-3,1.32,6,6,0,0,0-1,3.72,6.09,6.09,0,0,0,1,3.75A3.49,3.49,0,0,0,64,21Z"/><path class="cls-5" d="M80.89,28.71a.74.74,0,0,1-.42-.39.64.64,0,0,1,0-.54l2.22-5.64L78,10.41a.64.64,0,0,1,0-.54.74.74,0,0,1,.39-.39.77.77,0,0,1,.54,0,.69.69,0,0,1,.39.41l4.17,10.32L87.55,9.9a.69.69,0,0,1,.37-.41.82.82,0,0,1,.56,0,.74.74,0,0,1,.39.39.64.64,0,0,1,0,.54L81.79,28.32a.69.69,0,0,1-.38.37A.72.72,0,0,1,80.89,28.71Z"/><path class="cls-6" d="M102.91,22.44a5,5,0,0,1-4-1.76,7.16,7.16,0,0,1-1.47-4.75,7.16,7.16,0,0,1,1.47-4.77,5.49,5.49,0,0,1,8,0,7.11,7.11,0,0,1,1.49,4.77,7.11,7.11,0,0,1-1.49,4.75A5,5,0,0,1,102.91,22.44Zm0-1.44a3.61,3.61,0,0,0,3-1.32,5.89,5.89,0,0,0,1-3.75,5.84,5.84,0,0,0-1-3.72,3.61,3.61,0,0,0-3-1.32,3.66,3.66,0,0,0-3,1.32,5.73,5.73,0,0,0-1.08,3.72,5.78,5.78,0,0,0,1.08,3.75A3.66,3.66,0,0,0,102.91,21Z"/><path class="cls-7" d="M8.83,57a.74.74,0,0,1-.53-.23.7.7,0,0,1-.22-.52V47.17A21,21,0,0,1,5.8,49c-.82.59-1.64,1.13-2.46,1.61s-1.57.89-2.25,1.23a.86.86,0,0,1-.59,0,.73.73,0,0,1-.43-.36A.89.89,0,0,1,0,51a.63.63,0,0,1,.39-.42c.84-.42,1.73-.93,2.68-1.52a27.2,27.2,0,0,0,2.75-1.93A16.17,16.17,0,0,0,8.08,45V44.5L1.93,45.67a.73.73,0,0,1-.57-.12A.73.73,0,0,1,1,45.07a.91.91,0,0,1,.13-.59.7.7,0,0,1,.47-.31l6.45-1.23V40.39a.7.7,0,0,1,.22-.54.76.76,0,0,1,.53-.21.72.72,0,0,1,.75.75v2.28l4.68-.9a.77.77,0,0,1,.58.11.74.74,0,0,1,.2,1,.76.76,0,0,1-.48.32l-5,1V56.26a.73.73,0,0,1-.21.52A.71.71,0,0,1,8.83,57ZM6,40a.63.63,0,0,1-.53.18A.82.82,0,0,1,4.93,40L1.84,36.46a.69.69,0,0,1-.18-.54.81.81,0,0,1,.24-.51.66.66,0,0,1,.55-.21.78.78,0,0,1,.53.27L6,39a.66.66,0,0,1,.21.55A.78.78,0,0,1,6,40ZM4.54,34A.82.82,0,0,1,4,33.9a.69.69,0,0,1-.33-.47.76.76,0,0,1,.12-.59.78.78,0,0,1,.48-.31q1.17-.24,2.55-.6c.92-.24,1.81-.51,2.68-.83a16.66,16.66,0,0,0,2.21-.94.79.79,0,0,1,.6-.06.63.63,0,0,1,.42.36.75.75,0,0,1,.06.58.72.72,0,0,1-.36.44,19.93,19.93,0,0,1-2.37,1c-.92.33-1.87.63-2.84.89S5.34,33.84,4.54,34Zm4.38,4.92a.76.76,0,0,1-.59-.06A.72.72,0,0,1,8,38.41l-1-3.54A.71.71,0,0,1,7,34.3a.74.74,0,0,1,.45-.36A.71.71,0,0,1,8,34a.74.74,0,0,1,.36.45l1,3.54a.74.74,0,0,1-.06.58A.61.61,0,0,1,8.92,38.92Zm5.7,11.19-3.93-2.85a.73.73,0,0,1-.18-1,.76.76,0,0,1,.49-.3.69.69,0,0,1,.56.12l4,2.85a.79.79,0,0,1,.3.5.67.67,0,0,1-.12.55.9.9,0,0,1-.51.3A.73.73,0,0,1,14.62,50.11ZM11.23,39.25a.68.68,0,0,1-.38-.45.86.86,0,0,1,.05-.57L13.66,33a.74.74,0,0,1,.45-.36.71.71,0,0,1,.57.06.72.72,0,0,1,.39.45.71.71,0,0,1-.06.57L12.25,39a.74.74,0,0,1-.45.36A.71.71,0,0,1,11.23,39.25Zm4.2,16.26a.72.72,0,0,1-.56,0,.78.78,0,0,1-.43-.37.83.83,0,0,1,0-.6.69.69,0,0,1,.38-.42,22.92,22.92,0,0,0,3-1.71,30.3,30.3,0,0,0,3-2.27,29.63,29.63,0,0,0,2.67-2.56,18.15,18.15,0,0,0,2-2.61.67.67,0,0,1,.46-.31.8.8,0,0,1,.59.07.83.83,0,0,1,.31.48.69.69,0,0,1-.1.57,20.52,20.52,0,0,1-2.15,2.79,31.56,31.56,0,0,1-2.8,2.73,30.11,30.11,0,0,1-3.18,2.4A24.07,24.07,0,0,1,15.43,55.51Zm2.1-10.29a.77.77,0,0,1-.56,0,.71.71,0,0,1-.43-.39.89.89,0,0,1,0-.6.63.63,0,0,1,.39-.42,21.93,21.93,0,0,0,2.29-1.28,25.4,25.4,0,0,0,2.34-1.66,24.61,24.61,0,0,0,2-1.79,10.55,10.55,0,0,0,1.38-1.6.74.74,0,0,1,1-.21.7.7,0,0,1,.31.46.72.72,0,0,1-.1.59,12,12,0,0,1-1.5,1.77A25,25,0,0,1,22.52,42c-.81.64-1.64,1.23-2.5,1.78A21.33,21.33,0,0,1,17.53,45.22Zm.39-8.34a.8.8,0,0,1-.57,0,.74.74,0,0,1-.45-.36.75.75,0,0,1-.06-.59.62.62,0,0,1,.39-.43q1.08-.57,2.28-1.35a26,26,0,0,0,2.25-1.64,11,11,0,0,0,1.71-1.69.83.83,0,0,1,.52-.29.68.68,0,0,1,.56.17.66.66,0,0,1,.27.49.78.78,0,0,1-.15.56,12.55,12.55,0,0,1-2,1.95,27.48,27.48,0,0,1-2.44,1.77Q19,36.31,17.92,36.88Z"/><path class="cls-8" d="M42.13,56.17,38,54.31a.81.81,0,0,1-.41-.43.72.72,0,0,1,0-.56.84.84,0,0,1,.43-.42.62.62,0,0,1,.56,0L42,54.46a24.71,24.71,0,0,0,1.18-5.18,63.73,63.73,0,0,0,.53-7.21A28.74,28.74,0,0,1,41,45.5a28,28,0,0,1-3.21,3,.67.67,0,0,1-.56.16.7.7,0,0,1-.49-.28.68.68,0,0,1-.17-.56.83.83,0,0,1,.29-.52,25.32,25.32,0,0,0,2.65-2.4A32.3,32.3,0,0,0,41.9,42a20.83,20.83,0,0,0,1.85-2.82A4.9,4.9,0,0,0,42.22,36a13.27,13.27,0,0,1-1.82,2.22,12.94,12.94,0,0,1-2.23,1.77.72.72,0,0,1-.59.1.67.67,0,0,1-.46-.31.71.71,0,0,1-.11-.58.68.68,0,0,1,.35-.47,11.32,11.32,0,0,0,2-1.61,12.43,12.43,0,0,0,1.61-2,8.25,8.25,0,0,0-3.33-.78.86.86,0,0,1-.53-.26.61.61,0,0,1-.19-.52.78.78,0,0,1,.27-.54.69.69,0,0,1,.54-.18,9.13,9.13,0,0,1,2.14.3,9.85,9.85,0,0,1,1.85.69,10.86,10.86,0,0,0,1-3.06.74.74,0,0,1,.28-.53.67.67,0,0,1,.56-.13.69.69,0,0,1,.51.28.82.82,0,0,1,.15.56,9.92,9.92,0,0,1-.44,1.87A14.11,14.11,0,0,1,43,34.66a6.22,6.22,0,0,1,2.31,5.13,74.56,74.56,0,0,1-.54,9.54,23.4,23.4,0,0,1-1.59,6.45.73.73,0,0,1-.42.39A.64.64,0,0,1,42.13,56.17Zm10.2-15a.78.78,0,0,1-.9-.6L50.68,37l-4,.42a.69.69,0,0,1-.54-.18A.79.79,0,0,1,46,36.16a.72.72,0,0,1,.5-.27l3.9-.36-.81-4a.79.79,0,0,1,.1-.59.7.7,0,0,1,.47-.31.82.82,0,0,1,.58.1.71.71,0,0,1,.32.47l.84,4.14,5.55-.54.75-4.08a.74.74,0,0,1,.31-.5.78.78,0,0,1,.56-.1.66.66,0,0,1,.51.28.76.76,0,0,1,.12.59L59,34.69l3.84-.36a.67.67,0,0,1,.57.13.76.76,0,0,1,.27.53.72.72,0,0,1-.17.54.83.83,0,0,1-.52.3l-4.29.42L58,40.09a.65.65,0,0,1-.29.48.73.73,0,0,1-.58.12.78.78,0,0,1-.48-.31.7.7,0,0,1-.12-.56l.63-3.42-4.92.48.69,3.36a.77.77,0,0,1-.11.57A.67.67,0,0,1,52.33,41.14ZM50.2,55.33a.73.73,0,0,1-.78-.6L47.08,44.11a.72.72,0,0,1,.12-.63.91.91,0,0,1,.54-.3L62.41,42a.6.6,0,0,1,.6.24.63.63,0,0,1,.21.63L61.48,54a.68.68,0,0,1-.69.66Zm.54-1.56,4-.27v-4l-2.91.3a.74.74,0,0,1-.56-.18.73.73,0,0,1-.28-.51.72.72,0,0,1,.16-.56.78.78,0,0,1,.5-.25L54.73,48V45.4a.68.68,0,0,1,.24-.54.8.8,0,0,1,.54-.21.72.72,0,0,1,.75.75v2.43l2.46-.24a.65.65,0,0,1,.57.15.76.76,0,0,1,.27.51.74.74,0,0,1-.17.55.68.68,0,0,1-.52.29l-2.61.27v4l3.84-.24,1.47-9.6L48.73,44.62Z"/><path class="cls-9" d="M102.17,56a28.59,28.59,0,0,1-7.69-.84c-.3,1.13-1.27.83-2.33.48-2.51-.84-5-1.75-7.57-2.36a20.59,20.59,0,0,0-4.31-.11c-2,0-4.1,0-6.13-.2a3.3,3.3,0,0,1-2.74-3.6c.06-.36.39-.92.66-1s1.12.16,1.23.44c.87,2.2,2.68,2.22,4.57,2.17,2.5-.07,5-.15,7.48-.15,1.4,0,2.2-.36,2.06-2-.11-1.44,0-2.89,0-4.33A9,9,0,0,1,92,36.73L94.84,35a22.51,22.51,0,0,1-1.09-2.06c-.36-.82-.66-1.59.43-2.27.41-.25.51-1.13.6-1.74a19.21,19.21,0,0,0,0-2.46l3.59,2.16c1.27-2.73,1.77-2.76,3.41-.54A5.81,5.81,0,0,1,103,32.25a7.82,7.82,0,0,0,.41,3.06,9.86,9.86,0,0,1-.35,7.43c-1.29,2.86-2.9,5.62-2.77,9,.05,1.2.16,2.15,1.33,2.75.36.19.56.7.83,1.07Z"/></g></g></svg>