<svg xmlns="http://www.w3.org/2000/svg" viewBox="0 0 173.74 92.92"><defs><style>.cls-1{fill:#fff;}</style></defs><g id="レイヤー_2" data-name="レイヤー 2"><g id="レイヤー_1-2" data-name="レイヤー 1"><path class="cls-1" d="M13.24,92.92a1,1,0,0,1-.78-.34,1.06,1.06,0,0,1-.34-.79V78.16A32.81,32.81,0,0,1,8.7,81Q6.86,82.31,5,83.38c-1.23.72-2.36,1.33-3.38,1.84a1.25,1.25,0,0,1-.87,0,1.11,1.11,0,0,1-.66-.54,1.33,1.33,0,0,1,0-.9.94.94,0,0,1,.58-.63q1.89-.95,4-2.27A45.05,45.05,0,0,0,8.79,78a24.26,24.26,0,0,0,3.33-3.15v-.72L2.89,75.91A1.09,1.09,0,0,1,2,75.73a1.11,1.11,0,0,1-.5-.72,1.39,1.39,0,0,1,.2-.88,1.07,1.07,0,0,1,.7-.47l9.68-1.85V68a1,1,0,0,1,.34-.81,1.12,1.12,0,0,1,1.91.81v3.42l7-1.35a1.16,1.16,0,0,1,.88.16,1.06,1.06,0,0,1,.47.74,1,1,0,0,1-.18.83,1.1,1.1,0,0,1-.72.47L14.37,73.7V91.79a1.12,1.12,0,0,1-.32.79A1,1,0,0,1,13.24,92.92ZM9,67.45a.94.94,0,0,1-.79.27,1.26,1.26,0,0,1-.79-.36L2.76,62.09a1,1,0,0,1-.27-.81,1.21,1.21,0,0,1,.36-.76,1,1,0,0,1,.83-.32,1.18,1.18,0,0,1,.79.41l4.59,5.22a1,1,0,0,1,.31.83A1.15,1.15,0,0,1,9,67.45ZM6.81,58.4A1.19,1.19,0,0,1,6,58.25a1,1,0,0,1-.49-.7,1.13,1.13,0,0,1,.18-.88,1.14,1.14,0,0,1,.72-.47c1.17-.24,2.44-.54,3.82-.9s2.73-.77,4-1.24a23.91,23.91,0,0,0,3.31-1.42,1.19,1.19,0,0,1,.9-.09,1,1,0,0,1,.63.54,1.14,1.14,0,0,1,.09.88,1.09,1.09,0,0,1-.54.65A29.1,29.1,0,0,1,15,56.13c-1.38.5-2.8.94-4.25,1.33S8,58.16,6.81,58.4Zm6.57,7.38a1.13,1.13,0,0,1-.88-.09,1.06,1.06,0,0,1-.56-.67l-1.53-5.31a1.08,1.08,0,0,1,.09-.86,1.1,1.1,0,0,1,.67-.54,1.08,1.08,0,0,1,.86.09,1.12,1.12,0,0,1,.54.68l1.57,5.31a1.13,1.13,0,0,1-.09.88A.94.94,0,0,1,13.38,65.78Zm8.55,16.79L16,78.29a1,1,0,0,1-.47-.74,1.1,1.1,0,0,1,.2-.83,1.17,1.17,0,0,1,.75-.45,1,1,0,0,1,.83.18l5.94,4.27a1.17,1.17,0,0,1,.45.75,1,1,0,0,1-.18.83,1.36,1.36,0,0,1-.77.45A1.09,1.09,0,0,1,21.93,82.57ZM16.84,66.28a1,1,0,0,1-.56-.68,1.3,1.3,0,0,1,.07-.85L20.49,57a1.1,1.1,0,0,1,.67-.54,1.18,1.18,0,0,1,1.44.77,1.05,1.05,0,0,1-.09.85l-4.14,7.79a1.1,1.1,0,0,1-.67.54A1.08,1.08,0,0,1,16.84,66.28Zm6.3,24.39a1,1,0,0,1-.83,0,1.16,1.16,0,0,1-.65-.56,1.22,1.22,0,0,1,0-.9,1,1,0,0,1,.56-.63A34.84,34.84,0,0,0,26.77,86a47.3,47.3,0,0,0,4.5-3.39,47.4,47.4,0,0,0,4-3.85,26.85,26.85,0,0,0,3-3.92,1.08,1.08,0,0,1,.7-.47,1.19,1.19,0,0,1,.87.11,1.29,1.29,0,0,1,.48.72,1.06,1.06,0,0,1-.16.86A31.09,31.09,0,0,1,37,80.27a46.85,46.85,0,0,1-4.21,4.1A45.16,45.16,0,0,1,28,88,36.1,36.1,0,0,1,23.14,90.67Zm3.15-15.44a1.14,1.14,0,0,1-.83,0,1.1,1.1,0,0,1-.65-.59,1.33,1.33,0,0,1,0-.9,1,1,0,0,1,.59-.63,31.39,31.39,0,0,0,3.44-1.91,36,36,0,0,0,3.51-2.5,39.88,39.88,0,0,0,3-2.67,16.08,16.08,0,0,0,2.07-2.41,1.11,1.11,0,0,1,.72-.5,1.09,1.09,0,0,1,.85.18,1.12,1.12,0,0,1,.48.7,1.09,1.09,0,0,1-.16.88,18,18,0,0,1-2.25,2.65,38.1,38.1,0,0,1-3.26,2.88A46,46,0,0,1,30,73.14,33.41,33.41,0,0,1,26.29,75.23Zm.59-12.51a1.21,1.21,0,0,1-.86.05,1.1,1.1,0,0,1-.67-.54,1.11,1.11,0,0,1-.09-.88,1,1,0,0,1,.58-.65c1.08-.57,2.22-1.25,3.42-2a38,38,0,0,0,3.38-2.45,16.19,16.19,0,0,0,2.56-2.54,1.3,1.3,0,0,1,.79-.43,1.14,1.14,0,0,1,1.24,1,1.15,1.15,0,0,1-.23.83A18.93,18.93,0,0,1,34.06,58a42,42,0,0,1-3.67,2.65Q28.5,61.87,26.88,62.72Z"/><path class="cls-1" d="M63.19,91.66,57,88.87a1.17,1.17,0,0,1-.61-.65,1.06,1.06,0,0,1,0-.84,1.27,1.27,0,0,1,.66-.63.9.9,0,0,1,.83,0l5.13,2.29a37.36,37.36,0,0,0,1.78-7.76,97,97,0,0,0,.78-10.82,43.9,43.9,0,0,1-4.18,5.15,41.52,41.52,0,0,1-4.82,4.43,1,1,0,0,1-.83.25,1.07,1.07,0,0,1-.74-.43,1,1,0,0,1-.25-.83,1.3,1.3,0,0,1,.43-.79,37.52,37.52,0,0,0,4-3.6,48.51,48.51,0,0,0,3.65-4.23,31.54,31.54,0,0,0,2.76-4.23,7.33,7.33,0,0,0-2.29-4.9,20.1,20.1,0,0,1-2.72,3.33,19.68,19.68,0,0,1-3.36,2.65A1.15,1.15,0,0,1,55.68,67a1.09,1.09,0,0,1-.16-.88,1,1,0,0,1,.52-.7A17.68,17.68,0,0,0,59,63a18.62,18.62,0,0,0,2.41-3,12.4,12.4,0,0,0-5-1.17,1.26,1.26,0,0,1-.78-.38.94.94,0,0,1-.3-.79,1.18,1.18,0,0,1,.41-.81,1,1,0,0,1,.81-.27,13.82,13.82,0,0,1,3.22.45,14.75,14.75,0,0,1,2.76,1A16.29,16.29,0,0,0,64,53.54a1.06,1.06,0,0,1,.43-.78,1,1,0,0,1,.83-.21A1,1,0,0,1,66,53a1.19,1.19,0,0,1,.22.83,14.69,14.69,0,0,1-.65,2.82,20.63,20.63,0,0,1-1.15,2.76,9.35,9.35,0,0,1,3.47,7.7,111.85,111.85,0,0,1-.81,14.31,35,35,0,0,1-2.39,9.67,1.1,1.1,0,0,1-.63.59A1,1,0,0,1,63.19,91.66Zm15.3-22.55a1.09,1.09,0,0,1-.85-.18,1.11,1.11,0,0,1-.5-.72L76,62.9l-6.08.63a1,1,0,0,1-.81-.27A1.17,1.17,0,0,1,69,61.64a1,1,0,0,1,.74-.4l5.85-.54-1.22-5.94a1.16,1.16,0,0,1,.16-.88,1.07,1.07,0,0,1,.7-.47,1.16,1.16,0,0,1,.88.16,1,1,0,0,1,.47.69l1.26,6.21,8.32-.81,1.13-6.12a1.09,1.09,0,0,1,.47-.74,1.1,1.1,0,0,1,.83-.16,1,1,0,0,1,.77.43,1.13,1.13,0,0,1,.18.88l-1,5.49,5.76-.54a1,1,0,0,1,.86.2,1.11,1.11,0,0,1,.4.79,1.09,1.09,0,0,1-.24.81,1.29,1.29,0,0,1-.79.45L88,61.78,87,67.54a1,1,0,0,1-.43.72,1.09,1.09,0,0,1-.87.18,1.14,1.14,0,0,1-.72-.47,1.06,1.06,0,0,1-.18-.84L85.69,62l-7.38.72,1,5a1.19,1.19,0,0,1-.16.86A1,1,0,0,1,78.49,69.11ZM75.3,90.4a1.09,1.09,0,0,1-1.17-.9L70.62,73.57a1.09,1.09,0,0,1,.18-.95,1.37,1.37,0,0,1,.81-.45l22-1.84a.9.9,0,0,1,.9.36.93.93,0,0,1,.32.94l-2.61,16.7a1,1,0,0,1-1,1Zm.81-2.34,6-.41v-6l-4.36.45a1.09,1.09,0,0,1-.83-.27,1.1,1.1,0,0,1-.43-.77,1.05,1.05,0,0,1,.25-.83,1.09,1.09,0,0,1,.74-.38l4.63-.5V75.5a1,1,0,0,1,.36-.81,1.19,1.19,0,0,1,.81-.31,1.08,1.08,0,0,1,1.13,1.12v3.65l3.69-.36a1,1,0,0,1,.85.22,1.14,1.14,0,0,1,.16,1.6,1.05,1.05,0,0,1-.79.43l-3.91.4v6l5.76-.36,2.2-14.4L73.09,74.33Z"/><path class="cls-1" d="M153.26,91.43c-3.77-.14-7.57,0-11.54-1.25-.45,1.7-1.9,1.25-3.49.71-3.77-1.25-7.51-2.62-11.36-3.54-2.05-.49-4.3-.12-6.46-.17-3.07-.06-6.16,0-9.2-.3a4.94,4.94,0,0,1-4.11-5.38c.08-.55.58-1.39,1-1.45.58-.1,1.67.24,1.84.66,1.29,3.3,4,3.33,6.85,3.25,3.74-.1,7.48-.22,11.22-.21,2.1,0,3.29-.54,3.09-3a61.31,61.31,0,0,1,0-6.5A13.53,13.53,0,0,1,138,62.5l4.29-2.64c-.64-1.21-1.22-2.11-1.63-3.08-.53-1.24-1-2.4.66-3.42.61-.37.75-1.68.89-2.6a31,31,0,0,0,0-3.7l5.38,3.25c1.92-4.1,2.66-4.14,5.12-.81a8.75,8.75,0,0,1,1.85,6.28,11.62,11.62,0,0,0,.61,4.59,14.76,14.76,0,0,1-.52,11.15C152.7,75.8,150.28,80,150.48,85c.07,1.79.23,3.21,2,4.12.54.28.83,1,1.24,1.6Z"/><path class="cls-1" d="M2.43,33.3a1,1,0,0,1-.63-.56,1.12,1.12,0,0,1,0-.88L13.09,1.4a1.17,1.17,0,0,1,2.16,0L26.59,31.86a1,1,0,0,1,0,.88,1,1,0,0,1-.65.56,1,1,0,0,1-.83,0,1.17,1.17,0,0,1-.61-.66L14.17,5,7.92,21.73h8.5a1,1,0,0,1,.77.34,1.2,1.2,0,0,1,.31.84,1,1,0,0,1-.31.76,1,1,0,0,1-.77.31H7.06L3.87,32.62a1.2,1.2,0,0,1-.59.66A1,1,0,0,1,2.43,33.3Z"/><path class="cls-1" d="M38.92,42.93a1.08,1.08,0,0,1-.63-.59,1,1,0,0,1,0-.81l3.33-8.46L34.56,15.48a1,1,0,0,1,0-.81,1.1,1.1,0,0,1,.58-.58,1.13,1.13,0,0,1,.81,0,1,1,0,0,1,.59.61l6.25,15.47,6.12-15.47a1,1,0,0,1,.57-.61,1.18,1.18,0,0,1,.83,0,1.1,1.1,0,0,1,.58.58,1,1,0,0,1,0,.81L40.27,42.34a1,1,0,0,1-.56.57A1.13,1.13,0,0,1,38.92,42.93Z"/><path class="cls-1" d="M73.62,33.57a1.12,1.12,0,0,1-.77-.29,1,1,0,0,1-.31-.75v-.35L67,33.25a11.07,11.07,0,0,1-3.51.23,5.14,5.14,0,0,1-2.43-.9,4.22,4.22,0,0,1-1.14-1.46,5.46,5.46,0,0,1-.52-2,5.5,5.5,0,0,1,1.15-4.3,7,7,0,0,1,4.38-2.19l7.61-1.3V20.07a7,7,0,0,0-.29-1.91,2.44,2.44,0,0,0-1.2-1.51,3.41,3.41,0,0,0-1.84-.45q-2.79,0-6.89,2.52a1.06,1.06,0,0,1-1.44-.36,1,1,0,0,1-.15-.83.87.87,0,0,1,.47-.61,21.41,21.41,0,0,1,4.63-2.23,12,12,0,0,1,3.38-.6,5.71,5.71,0,0,1,1.64.2,5.57,5.57,0,0,1,1.19.47,4.71,4.71,0,0,1,2,2.09,7.24,7.24,0,0,1,.68,3.22V32.53a1,1,0,0,1-.29.75A1.1,1.1,0,0,1,73.62,33.57Zm-7-2.48L72.54,30V23.49l-7.2,1.21a5.67,5.67,0,0,0-2.68,1,2.92,2.92,0,0,0-1,1.55,6,6,0,0,0-.14,1.6,2.58,2.58,0,0,0,.86,1.93C63.09,31.37,64.51,31.45,66.64,31.09Z"/><path class="cls-1" d="M85.36,33.53a1,1,0,0,1-.74-.3,1,1,0,0,1-.29-.74V15a1.12,1.12,0,0,1,.29-.77,1,1,0,0,1,.74-.31,1.09,1.09,0,0,1,.77.31,1,1,0,0,1,.31.77v1.48a7.68,7.68,0,0,1,2.48-1.84A7.2,7.2,0,0,1,92,14a6.16,6.16,0,0,1,4.89,2,8.23,8.23,0,0,1,1.77,5.56V32.4a1,1,0,0,1-.29.76,1,1,0,0,1-.74.32,1.06,1.06,0,0,1-.77-.32,1,1,0,0,1-.31-.76V21.6a9.52,9.52,0,0,0-.32-2.29A4.46,4.46,0,0,0,95,17.12a4.15,4.15,0,0,0-3-.92,5.62,5.62,0,0,0-4.09,1.44,5.45,5.45,0,0,0-1.49,4.09V32.49a1,1,0,0,1-.31.74A1.08,1.08,0,0,1,85.36,33.53Z"/><path class="cls-1" d="M116.1,33.53a7.44,7.44,0,0,1-6-2.64,10.74,10.74,0,0,1-2.21-7.13,10.76,10.76,0,0,1,2.21-7.16,8.15,8.15,0,0,1,11.63-.31,9,9,0,0,1,2.45,6.21v.13a1,1,0,0,1-.31.72,1,1,0,0,1-.77.32H110a9.59,9.59,0,0,0,1.47,5.58,5.21,5.21,0,0,0,4.61,2.12,6.88,6.88,0,0,0,3-.7,5.58,5.58,0,0,0,2.18-1.83,1.16,1.16,0,0,1,.7-.44,1,1,0,0,1,.78.17,1,1,0,0,1,.45.68,1,1,0,0,1-.18.81,7.72,7.72,0,0,1-2.94,2.52A8.82,8.82,0,0,1,116.1,33.53Zm-5.94-12h11.65a6.86,6.86,0,0,0-2-4,5.38,5.38,0,0,0-3.76-1.39,5.62,5.62,0,0,0-3.94,1.39A7.09,7.09,0,0,0,110.16,21.56Z"/><path class="cls-1" d="M135.63,33.53a1.08,1.08,0,0,1-.77-.3,1,1,0,0,1-.31-.74V1.08a1.06,1.06,0,0,1,.31-.77,1.09,1.09,0,0,1,.77-.31,1.08,1.08,0,0,1,1.08,1.08V22.63l10.17-8.37a1.13,1.13,0,0,1,.79-.22,1.17,1.17,0,0,1,.74.4,1.14,1.14,0,0,1,.2.75,1,1,0,0,1-.38.74L141.3,21.6,149,31.81a.81.81,0,0,1,.22.77,1.15,1.15,0,0,1-.45.72.88.88,0,0,1-.76.2,1.11,1.11,0,0,1-.72-.38L139.68,23l-3,2.43v7.11a1,1,0,0,1-.32.74A1.06,1.06,0,0,1,135.63,33.53Z"/><path class="cls-1" d="M165.51,33.53a7.44,7.44,0,0,1-6-2.64,10.74,10.74,0,0,1-2.21-7.13,10.76,10.76,0,0,1,2.21-7.16,8.27,8.27,0,0,1,12,0,10.71,10.71,0,0,1,2.22,7.16,10.69,10.69,0,0,1-2.22,7.13A7.47,7.47,0,0,1,165.51,33.53Zm0-2.16a5.39,5.39,0,0,0,4.5-2,8.83,8.83,0,0,0,1.57-5.62A8.76,8.76,0,0,0,170,18.18a5.41,5.41,0,0,0-4.5-2,5.49,5.49,0,0,0-4.5,2,8.59,8.59,0,0,0-1.62,5.58A8.65,8.65,0,0,0,161,29.38,5.47,5.47,0,0,0,165.51,31.37Z"/></g></g></svg>