<svg xmlns="http://www.w3.org/2000/svg" viewBox="0 0 46.22 110.37"><defs><style>.cls-1{opacity:0.5;}.cls-2{fill:#231815;}</style></defs><g id="レイヤー_2" data-name="レイヤー 2"><g id="レイヤー_1-2" data-name="レイヤー 1"><g class="cls-1"><path class="cls-2" d="M24.23,79.41H13.73A54.7,54.7,0,0,1,13.17,72c0-7.84,2.8-16.25,9.52-24.79,7.42-9,11.34-15.27,11.34-23,0-8.68-5.32-14.57-15.4-14.57A26.41,26.41,0,0,0,3.36,14.57L0,6c4.9-3.5,13.3-6,21-6C38.38,0,46.22,11.06,46.22,23c0,10.5-6,18.49-13.45,27.73C26.75,58.4,24,64.57,24,71.85a27,27,0,0,0,.14,3.36ZM10.5,101.54c.14-5.18,3.37-9,8.27-9s8.26,3.78,8.26,9c0,4.9-3.22,8.83-8.26,8.83C13.45,110.37,10.5,106.16,10.5,101.54Z"/></g></g></g></svg>