<svg xmlns="http://www.w3.org/2000/svg" viewBox="0 0 121 119.47"><defs><style>.cls-1,.cls-4{fill:#231815;}.cls-1{stroke:#fff;}.cls-1,.cls-3{stroke-miterlimit:10;}.cls-1,.cls-2{opacity:0.5;}.cls-3{fill:none;stroke:#231815;stroke-width:4px;}</style></defs><g id="レイヤー_2" data-name="レイヤー 2"><g id="レイヤー_1-2" data-name="レイヤー 1"><path class="cls-1" d="M56.17,93.28c0-16.23-6.55-30.22-16-36.7-3.35,3.94-7.49,6.3-12,6.3s-8.55-2.31-11.87-6.16C7,63.26.5,77.17.5,93.28"/><ellipse class="cls-1" cx="28.17" cy="31.69" rx="19.97" ry="31.19"/><path class="cls-1" d="M120.5,93.28c0-16.23-6.55-30.22-16-36.7-3.35,3.94-7.49,6.3-12,6.3S84,60.57,80.63,56.72c-9.35,6.54-15.8,20.45-15.8,36.56"/><ellipse class="cls-1" cx="92.5" cy="31.69" rx="19.97" ry="31.19"/><g class="cls-2"><line class="cls-3" x1="20.5" y1="109.5" x2="94.15" y2="109.5"/><polygon class="cls-4" points="91.23 119.47 108.5 109.5 91.23 99.53 91.23 119.47"/></g></g></g></svg>