<?xml version="1.0" encoding="UTF-8"?>
<svg id="_イヤー_2" data-name="レイヤー 2" xmlns="http://www.w3.org/2000/svg" xmlns:xlink="http://www.w3.org/1999/xlink" viewBox="0 0 56.5147 3.94627">
  <defs>
    <style>
      .cls-1 {
        fill: url(#_称未設定グラデーション_17);
      }
    </style>
    <linearGradient id="_称未設定グラデーション_17" data-name="名称未設定グラデーション 17" x1="-.14367" y1="1.97314" x2="56.65838" y2="1.97314" gradientTransform="matrix(1, 0, 0, 1, 0, 0)" gradientUnits="userSpaceOnUse">
      <stop offset="0" stop-color="#fff"/>
      <stop offset="1" stop-color="#ffaffa"/>
    </linearGradient>
  </defs>
  <g id="_イヤー_1-2" data-name="レイヤー 1">
    <path class="cls-1" d="M0,1.97226L3.43441,.9915,6.95783,.3511,10.53006,.04724l3.58553-.04724c4.78601,.09477,9.51527,.81684,14.21585,1.47836,4.69102,.74211,9.3781,1.44512,14.09607,1.69922,4.71094,.26175,9.47102-.03641,14.0872-1.20532-1.1378,.33564-2.28304,.66433-3.43427,.98146l-3.52341,.64114-3.57234,.30375-3.58563,.04768c-4.78589-.09744-9.51554-.81597-14.21578-1.48012-4.69069-.74474-9.37815-1.44421-14.096-1.70097-4.71106-.26118-9.47142,.03662-14.08727,1.20708Z"/>
  </g>
</svg>